<?xml version="1.0" encoding="utf-8"?>
<svg version="1.1" xmlns="http://www.w3.org/2000/svg" xmlns:xlink="http://www.w3.org/1999/xlink" x="0px" y="0px" viewBox="0 0 864 432" enable-background="new 0 0 864 432" xml:space="preserve">
<style type="text/css">
	.graticules line, .graticules path {fill:none; stroke:#fff; stroke-width:.25px;}
	.icecap path {fill:none; stroke:#fff; stroke-width:.5px; stroke-linecap:round; stroke-linejoin:round; stroke-dasharray:0,2px;} 
	text {fill:#fff; font-family:'ArialMT'; font-size:5px;}
</style>
<g class="graticules" opacity="0.1">
	<line x1="556.6" y1="-315.5" x2="598.2" y2="-429.8"/>
	<line x1="527.5" y1="-235.7" x2="502.4" y2="-166.6"/>
	<line x1="500.4" y1="-161" x2="475.4" y2="-92.4"/>
	<line x1="554.6" y1="-309.9" x2="529.6" y2="-241.3"/>
	<line x1="473.3" y1="-86.7" x2="448.2" y2="-17.7"/>
	<line x1="446.2" y1="-12.1" x2="421.2" y2="56.5"/>
	<line x1="231.4" y1="578" x2="256.4" y2="509.4"/>
	<line x1="366.8" y1="205.9" x2="419.1" y2="62.2"/>
	<line x1="312.6" y1="354.8" x2="337.7" y2="285.8"/>
	<line x1="258.4" y1="503.8" x2="283.6" y2="434.7"/>
	<line x1="285.6" y1="429.1" x2="310.6" y2="360.5"/>
	<line x1="229.3" y1="583.6" x2="187.8" y2="697.8"/>
	<line x1="339.8" y1="280.2" x2="364.8" y2="211.6"/>
	<line x1="613.8" y1="214.4" x2="544.8" y2="189.3"/>
	<line x1="842.6" y1="297.7" x2="956.8" y2="339.2"/>
	<line x1="539.2" y1="187.2" x2="470.6" y2="162.2"/>
	<line x1="837" y1="295.6" x2="768.4" y2="270.6"/>
	<line x1="688.1" y1="241.4" x2="619.5" y2="216.4"/>
	<line x1="762.8" y1="268.6" x2="693.7" y2="243.4"/>
	<line x1="241.3" y1="78.8" x2="172.3" y2="53.7"/>
	<line x1="166.6" y1="51.6" x2="98" y2="26.6"/>
	<line x1="315.5" y1="105.8" x2="246.9" y2="80.8"/>
	<line x1="465" y1="160.2" x2="321.2" y2="107.9"/>
	<line x1="92.4" y1="24.6" x2="23.3" y2="-0.5"/>
	<line x1="17.7" y1="-2.6" x2="-50.9" y2="-27.6"/>
	<line x1="-56.5" y1="-29.6" x2="-170.8" y2="-71.2"/>
	<line x1="548.3" y1="-445.5" x2="409.8" y2="71.3"/>
	<line x1="237.7" y1="713.5" x2="376.2" y2="196.7"/>
	<line x1="455.7" y1="150.8" x2="972.5" y2="289.3"/>
	<line x1="330.3" y1="117.2" x2="-186.5" y2="-21.3"/>
	<line x1="381.7" y1="198" x2="288.8" y2="724.9"/>
	<line x1="404.3" y1="70" x2="497.2" y2="-456.9"/>
	<line x1="457" y1="145.3" x2="983.9" y2="238.2"/>
	<line x1="329" y1="122.7" x2="-197.9" y2="29.8"/>
	<line x1="387.3" y1="198.8" x2="340.7" y2="731.8"/>
	<line x1="398.7" y1="69.2" x2="445.3" y2="-463.8"/>
	<line x1="457.8" y1="139.7" x2="990.8" y2="186.3"/>
	<line x1="328.2" y1="128.3" x2="-204.8" y2="81.7"/>
	<line x1="393" y1="69" x2="393" y2="-466"/>
	<line x1="393" y1="199" x2="393" y2="734"/>
	<line x1="458" y1="134" x2="993" y2="134"/>
	<line x1="328" y1="134" x2="-207" y2="134"/>
	<line x1="387.3" y1="69.2" x2="340.7" y2="-463.7"/>
	<line x1="398.7" y1="198.8" x2="445.3" y2="731.7"/>
	<line x1="457.8" y1="128.3" x2="990.7" y2="81.7"/>
	<line x1="328.2" y1="139.7" x2="-204.7" y2="186.3"/>
	<line x1="404.3" y1="198" x2="497.2" y2="724.9"/>
	<line x1="381.7" y1="70" x2="288.8" y2="-456.9"/>
	<line x1="329" y1="145.3" x2="-197.9" y2="238.2"/>
	<line x1="457" y1="122.7" x2="983.9" y2="29.8"/>
	<line x1="409.9" y1="196.7" x2="548.2" y2="713.5"/>
	<line x1="376.1" y1="71.3" x2="237.8" y2="-445.5"/>
	<line x1="455.7" y1="117.1" x2="972.5" y2="-21.2"/>
	<line x1="330.3" y1="150.9" x2="-186.5" y2="289.2"/>
	<line x1="415.2" y1="195.1" x2="598.2" y2="697.8"/>
	<line x1="370.8" y1="72.9" x2="187.8" y2="-429.8"/>
	<line x1="331.9" y1="156.2" x2="-170.8" y2="339.2"/>
	<line x1="454.1" y1="111.8" x2="956.8" y2="-71.2"/>
	<line x1="365.5" y1="75" x2="139.4" y2="-409.8"/>
	<line x1="420.5" y1="193" x2="646.6" y2="677.8"/>
	<line x1="452" y1="106.5" x2="936.8" y2="-119.6"/>
	<line x1="334" y1="161.5" x2="-150.8" y2="387.6"/>
	<line x1="360.5" y1="77.7" x2="93" y2="-385.6"/>
	<line x1="425.5" y1="190.3" x2="693" y2="653.6"/>
	<line x1="449.3" y1="101.5" x2="912.6" y2="-166"/>
	<line x1="336.7" y1="166.5" x2="-126.6" y2="434"/>
	<line x1="355.8" y1="80.8" x2="48.8" y2="-357.5"/>
	<line x1="430.2" y1="187.2" x2="737.2" y2="625.5"/>
	<line x1="446.2" y1="96.8" x2="884.5" y2="-210.2"/>
	<line x1="339.8" y1="171.2" x2="-98.5" y2="478.2"/>
	<line x1="434.8" y1="183.8" x2="778.7" y2="593.6"/>
	<line x1="351.2" y1="84.2" x2="7.3" y2="-325.6"/>
	<line x1="442.8" y1="92.2" x2="852.6" y2="-251.7"/>
	<line x1="343.2" y1="175.8" x2="-66.6" y2="519.7"/>
	<line x1="347.1" y1="88" x2="-31.3" y2="-290.3"/>
	<line x1="438.9" y1="180" x2="817.3" y2="558.3"/>
	<line x1="439" y1="88.1" x2="817.3" y2="-290.3"/>
	<line x1="347" y1="179.9" x2="-31.3" y2="558.3"/>
	<line x1="442.9" y1="175.9" x2="852.6" y2="519.7"/>
	<line x1="343.2" y1="92.2" x2="-66.6" y2="-251.7"/>
	<line x1="351.2" y1="183.8" x2="7.3" y2="593.6"/>
	<line x1="434.7" y1="84.2" x2="778.7" y2="-325.6"/>
	<line x1="446.3" y1="171.3" x2="884.5" y2="478.2"/>
	<line x1="339.7" y1="96.7" x2="-98.5" y2="-210.2"/>
	<line x1="430.3" y1="80.7" x2="737.2" y2="-357.5"/>
	<line x1="355.7" y1="187.3" x2="48.8" y2="625.5"/>
	<line x1="449.3" y1="166.5" x2="912.6" y2="434"/>
	<line x1="336.7" y1="101.5" x2="-126.6" y2="-166"/>
	<line x1="425.5" y1="77.7" x2="693" y2="-385.6"/>
	<line x1="360.5" y1="190.3" x2="93" y2="653.6"/>
	<line x1="334.2" y1="106.5" x2="-150.8" y2="-119.6"/>
	<line x1="451.8" y1="161.5" x2="936.8" y2="387.6"/>
	<line x1="365.5" y1="192.8" x2="139.4" y2="677.8"/>
	<line x1="420.5" y1="75.2" x2="646.6" y2="-409.8"/>
	<path d="M466.2,165c-15.8,37.5-57.6,57-96.6,45"/>
	<path d="M469,157.5c12.1-39-7.4-80.8-45-96.7"/>
	<path d="M319.7,103.1C335.6,65.5,377.5,46,416.5,58"/>
	<path d="M317,110.7c-12,39,7.5,80.8,45.1,96.6"/>
	<path d="M245.5,76.1c30.8-78.6,118-119.3,198-92.3"/>
	<path d="M543.2,184.5c26.9-80-13.7-167.1-92.2-198"/>
	<path d="M335.1,281.5c-78.6-30.8-119.2-117.9-92.4-197.9"/>
	<path d="M540.5,192c-30.8,78.5-117.9,119.1-197.9,92.3"/>
	<path d="M170.7,48.9C216.6-70.9,349.4-132.9,470.7-90.9"/>
	<path d="M615.2,219.2C569.3,338.9,436.7,400.8,315.4,359"/>
	<path d="M617.9,211.7c41.9-121.2-20-254-139.7-299.9"/>
	<path d="M307.9,356.3C188.1,310.4,126.2,177.7,168,56.4"/>
	<path d="M689.4,246.2c-60.8,160.7-238.8,243.8-401,187"/>
	<path d="M692.2,238.7C749,76.4,666-101.6,505.2-162.4"/>
	<path d="M280.9,430.5C120.1,369.7,37,191.7,93.8,29.4"/>
	<path d="M96.5,21.9C157.3-139,335.4-222,497.7-165.2"/>
	<path d="M253.7,505.2C51.6,429.4-52.7,205.7,19,2.2"/>
	<path d="M764.2,273.4c-75.8,202-299.5,306.3-503,234.5"/>
	<path d="M21.8-5.3c75.8-202.1,299.6-306.5,503.1-234.6"/>
	<path d="M766.9,265.9c71.8-203.5-32.5-427.2-234.5-503.1"/>
	<path d="M838.4,300.4c-90.8,243-359.7,368.4-604.2,281.8"/>
	<path d="M-52.5-32.3c90.7-243.1,359.8-368.6,604.4-281.8"/>
	<path d="M226.7,579.5C-16.4,488.7-141.9,219.7-55.2-24.8"/>
	<path d="M841.1,292.9c86.8-244.5-38.7-513.6-281.7-604.3"/>
</g>
<g opacity="0.15">
	<text transform="matrix(0.9397 0.342 -0.342 0.9397 362.5798 209.4483)">85</text>
	<text transform="matrix(0.9397 0.342 -0.342 0.9397 335.5603 283.6839)">80</text>
	<text transform="matrix(0.9397 0.342 -0.342 0.9397 308.3696 358.3894)">75</text>
	<text transform="matrix(0.9397 0.342 -0.342 0.9397 281.3501 432.6253)">70</text>
	<text transform="matrix(0.9397 0.342 -0.342 0.9397 254.1594 507.3308)">65</text>
	<text transform="matrix(0.9397 0.342 -0.342 0.9397 227.1399 581.5665)">60</text>
	<text transform="matrix(-0.9397 -0.342 0.342 -0.9397 423.4988 58.7012)">85</text>
	<text transform="matrix(-0.9397 -0.342 0.342 -0.9397 450.5183 -15.5332)">80</text>
	<text transform="matrix(-0.9397 -0.342 0.342 -0.9397 477.7088 -90.2403)">75</text>
	<text transform="matrix(-0.9397 -0.342 0.342 -0.9397 504.7283 -164.4746)">70</text>
	<text transform="matrix(-0.9397 -0.342 0.342 -0.9397 531.9187 -239.1817)">65</text>
	<text transform="matrix(-0.9397 -0.342 0.342 -0.9397 558.9382 -313.416)">60</text>
	<text transform="matrix(-0.342 0.9397 -0.9397 -0.342 317.666 103.6157)">85</text>
	<text transform="matrix(-0.342 0.9397 -0.9397 -0.342 243.4297 76.5962)">80</text>
	<text transform="matrix(-0.342 0.9397 -0.9397 -0.342 168.7246 49.4055)">75</text>
	<text transform="matrix(-0.342 0.9397 -0.9397 -0.342 94.4883 22.386)">70</text>
	<text transform="matrix(-0.342 0.9397 -0.9397 -0.342 19.7832 -4.8047)">65</text>
	<text transform="matrix(-0.342 0.9397 -0.9397 -0.342 -54.4512 -31.8242)">60</text>
	<text transform="matrix(0.342 -0.9397 0.9397 0.342 468.4126 164.5349)">85</text>
	<text transform="matrix(0.342 -0.9397 0.9397 0.342 542.6482 191.5545)">80</text>
	<text transform="matrix(0.342 -0.9397 0.9397 0.342 617.3538 218.7449)">75</text>
	<text transform="matrix(0.342 -0.9397 0.9397 0.342 691.5895 245.7644)">70</text>
	<text transform="matrix(0.342 -0.9397 0.9397 0.342 766.295 272.9558)">65</text>
	<text transform="matrix(0.342 -0.9397 0.9397 0.342 840.5308 299.9754)">60</text>
</g>
<g class="icecap" opacity="0.25">
	<path d="M0,220.7l1.5-0.2l2,1.7l2.6,0.1l2.1,1.7l3.7-0.4l3.1,1.2l5.8-1.4l4.2,0.7l5.8-1.4l3.1,1.2l4.7-0.9l3.1,1.2l5.8-1.4l4.2,0.7l6.9-1.9l4.2,0.7l5.8-1.4l3.1,1.2l4.8-0.9l1.6,0.6"/>
	<path d="M0,351.3l2.4-0.8l6.2-0.2l7.8-2.3l3.1,1.2l5.7-1.3l4.2,0.7l4.7-0.9l2.1,1.7l2.6,0.1l2.1,1.7l2.1,1.7l4.2,0.7l4.2,0.7l4.7-0.9l2.1,1.7l2.6,0.1l2.1,1.7l2.1,1.7l2.1,1.7l2.1,1.7l2.6,0.1l2.1,1.7l2.6,0.1l2.1,1.7l2.6,0.1l2.6,2.8l2.6,2.8l2.6,2.8l2.1,1.7l3.7-0.4l3.2,1.2l4.8-0.9l4.2,3.4l4.2,3.4l3.1,3.8l2.1,1.7l2.6,0.1l2.1,1.7l3.7-0.4l3.2,1.2l3.7-0.4l2.1,1.7l3.7-0.4l3.2,1.2l4.8-0.9l3.2,1.2l4.8-0.9l3.2,1.2l4.8-0.9l3.2,1.2l4.8-0.9l3.2,1.2l4.8-0.9l3.2,1.2l4.8-0.9l3.2,1.2l4.8-0.9l2.2-1l7-4.5l4.4-4.6l13.6-7.5l8.7-4l12.5-4.4l3.3-1.5l3.8-3.1l0.1-2.7l6-4.1l4.4-4.7l22.4-11.6l16.5-10.3l19.2-10.2l1.2-3.2l2.8-2.6l0.1-2.7l9.4-5.7l7.8-6.3l11.6-6.7l3.3-1.5l6-1.5l3.2,1.2l3.8-0.4l2.1,1.7h1.4"/>
	<path d="M374.6,339.9v1.3l-1.7,2.1l1,4.9l1.5,3.3l3.2,3.9l2.1,1.7l2.1,1.7l2.1,1.7l2.7,0.1l2.1,1.7l3.8-0.4l3.2,1.2l10.4-3.5l7.7-3.6l10.5-6.2l3.3-1.5l4.9-1l2.1,1.7l4.9-1l4.3,0.6l7.1-2l4.3,0.6l4.9-1l2.1,1.7l9.3-3l8.7-1.4l10.4-3.5l3.2,1.1l6-1.5l5.3,2.8l5.3,2.8l3.1,3.8l2.1,1.7l2.7,0.1l2.1,1.7l2.7,0.1l1.1-0.5l1.7-2.1l1.1-0.5l2.7,0.1l2.1,1.7l2.7,0.1l1.1,0.8"/>
	<path d="M542.4,380.9l1,3.5l1.5,3.2l3.1,3.8l-0.6,1.6l-1.2,3.2l-0.6,1.6l3.1,3.8l0.4,3.7l0.8,7.5l-1.4,2.6"/>
</g>
</svg>
